<svg width="20" height="20" viewBox="0 0 20 20" fill="none" xmlns="http://www.w3.org/2000/svg">
<g clip-path="url(#clip0_4_1039)">
<path d="M16.7812 15.6289L13.1172 11.9648C13.9102 11.0078 14.3477 9.77734 14.3477 8.4375C14.3477 5.32031 11.7773 2.75 8.66016 2.75C5.51562 2.75 3 5.32031 3 8.4375C3 11.582 5.54297 14.125 8.66016 14.125C9.97266 14.125 11.2031 13.6875 12.1875 12.8945L15.8516 16.5586C15.9883 16.6953 16.1523 16.75 16.3438 16.75C16.5078 16.75 16.6719 16.6953 16.7812 16.5586C17.0547 16.3125 17.0547 15.9023 16.7812 15.6289ZM4.3125 8.4375C4.3125 6.03125 6.25391 4.0625 8.6875 4.0625C11.0938 4.0625 13.0625 6.03125 13.0625 8.4375C13.0625 10.8711 11.0938 12.8125 8.6875 12.8125C6.25391 12.8125 4.3125 10.8711 4.3125 8.4375Z" fill="#88859E"/>
</g>
<defs>
<clipPath id="clip0_4_1039">
<rect width="20" height="20" fill="white"/>
</clipPath>
</defs>
</svg>